<svg xmlns="http://www.w3.org/2000/svg" viewBox="0 0 100 100" width="100%" height="100%">
  <defs>
    <linearGradient id="favGold" x1="0%" y1="0%" x2="100%" y2="100%">
      <stop offset="0%" stop-color="#fef08a"/>
      <stop offset="50%" stop-color="#eab308"/>
      <stop offset="100%" stop-color="#a16207"/>
    </linearGradient>
  </defs>

  <circle cx="50" cy="50" r="48" fill="#ffffff" stroke="#1e3a8a" stroke-width="2"/>
  <circle cx="50" cy="50" r="44" fill="#ffffff" stroke="url(#favGold)" stroke-width="2"/>

  <!-- Figures in circle -->
  <g transform="translate(50, 50) scale(0.38)">
    <circle cx="0" cy="-60" r="10" fill="#84cc16"/>
    <path d="M -6 -45 C -2 -47 25 -50 45 -30 C 35 -24 20 -18 5 -20 Z" fill="#84cc16"/>
    
    <g transform="rotate(60)">
      <circle cx="0" cy="-60" r="10" fill="#16a34a"/>
      <path d="M -6 -45 C -2 -47 25 -50 45 -30 C 35 -24 20 -18 5 -20 Z" fill="#16a34a"/>
    </g>

    <g transform="rotate(120)">
      <circle cx="0" cy="-60" r="10" fill="#0284c7"/>
      <path d="M -6 -45 C -2 -47 25 -50 45 -30 C 35 -24 20 -18 5 -20 Z" fill="#0284c7"/>
    </g>

    <g transform="rotate(180)">
      <circle cx="0" cy="-60" r="10" fill="#6366f1"/>
      <path d="M -6 -45 C -2 -47 25 -50 45 -30 C 35 -24 20 -18 5 -20 Z" fill="#6366f1"/>
    </g>

    <g transform="rotate(240)">
      <circle cx="0" cy="-60" r="10" fill="#ea580c"/>
      <path d="M -6 -45 C -2 -47 25 -50 45 -30 C 35 -24 20 -18 5 -20 Z" fill="#ea580c"/>
    </g>

    <g transform="rotate(300)">
      <circle cx="0" cy="-60" r="10" fill="#f59e0b"/>
      <path d="M -6 -45 C -2 -47 25 -50 45 -30 C 35 -24 20 -18 5 -20 Z" fill="#f59e0b"/>
    </g>

    <circle cx="0" cy="0" r="26" fill="#ffffff"/>
    <text x="0" y="9" font-family="'Outfit', sans-serif" font-size="22" font-weight="900" fill="#1e3a8a" text-anchor="middle">
      BVF
    </text>
  </g>
</svg>
